<svg width="18" height="19" viewBox="0 0 18 19" fill="none" xmlns="http://www.w3.org/2000/svg">
<path fill-rule="evenodd" clip-rule="evenodd" d="M9.41919 11.2969C9.31663 11.0168 9.04737 10.8163 8.73215 10.8163C8.41693 10.8163 8.14763 11.0168 8.04511 11.2969L8.73215 11.7877L9.41919 11.2969ZM8.73215 14.7837C8.60424 14.8984 8.45921 14.9925 8.3023 15.0625L8.42907 15.5697H9.03519L9.162 15.0625C9.00509 14.9925 8.86006 14.8984 8.73215 14.7837ZM14.7996 4.3543C14.8266 4.32874 14.8536 4.30303 14.8801 4.27649C16.0225 3.13415 16.254 1.51354 15.3972 0.656805C14.5405 -0.199933 12.9199 0.0315556 11.7776 1.1739C11.7486 1.20282 11.7205 1.23218 11.6928 1.26169C13.0389 1.91974 14.1355 3.01162 14.7996 4.3543ZM5.77154 1.26169C5.74374 1.23199 5.71548 1.20273 5.68678 1.1739C4.5444 0.031519 2.92384 -0.19997 2.06706 0.656769C1.21032 1.51351 1.44181 3.13411 2.58415 4.27645C2.6107 4.303 2.63768 4.3287 2.6647 4.35426C3.32875 3.01162 4.42542 1.91974 5.77154 1.26169ZM2.4424 16.8292C2.53385 16.9022 2.6269 16.9732 2.72149 17.042C4.33383 18.2147 6.46846 18.8605 8.73215 18.8605C10.9958 18.8605 13.1305 18.2147 14.7428 17.042C14.8374 16.9732 14.9305 16.9022 15.0219 16.8292C14.3281 14.4779 12.4626 12.6607 10.1429 12.128L9.28062 12.744V13.5586C9.28062 13.8611 9.52666 14.1071 9.82908 14.1071C10.1315 14.1071 10.3775 13.8611 10.3775 13.5586C10.3775 13.2557 10.6231 13.0102 10.926 13.0102C11.2289 13.0102 11.4745 13.2557 11.4745 13.5586C11.4745 14.3122 10.9651 14.9487 10.2726 15.1428L9.99552 16.2512C9.96585 16.3699 9.89737 16.4752 9.80096 16.5505C9.70455 16.6257 9.58575 16.6666 9.46344 16.6666H8.00087C7.87855 16.6666 7.75975 16.6257 7.66334 16.5504C7.56693 16.4752 7.49845 16.3698 7.46878 16.2512L7.1917 15.1428C6.49924 14.9487 5.98983 14.3122 5.98983 13.5586C5.98983 13.2557 6.23539 13.0102 6.53829 13.0102C6.84119 13.0102 7.08676 13.2557 7.08676 13.5586C7.08676 13.8611 7.3328 14.1071 7.63522 14.1071C7.93765 14.1071 8.18369 13.8611 8.18369 13.5586V12.744L7.32139 12.1281C5.00175 12.6607 3.1362 14.4779 2.4424 16.8292ZM6.96386 11.0833C5.5848 11.4198 4.31971 12.1496 3.29445 13.2195C2.52419 14.0234 1.9385 14.968 1.5594 15.9974C0.635565 14.9608 0.139534 13.7428 0.139534 12.4617C0.139534 10.5998 1.20118 8.85887 3.06468 7.64501V7.3427C3.06468 4.21766 5.60711 1.67523 8.73215 1.67523C11.8572 1.67523 14.3996 4.21766 14.3996 7.3427V7.64501C16.2631 8.85887 17.3248 10.5998 17.3248 12.4617C17.3248 13.7428 16.8287 14.9608 15.9049 15.9974C15.5258 14.968 14.9401 14.0234 14.1698 13.2195C13.1445 12.1496 11.8795 11.4198 10.5004 11.0833C10.2944 10.2994 9.57985 9.71938 8.73215 9.71938C7.88444 9.71938 7.16986 10.2994 6.96386 11.0833ZM11.2916 6.79423C10.9888 6.79423 10.7432 7.0398 10.7432 7.3427V8.43963C10.7432 8.74253 10.9888 8.98809 11.2916 8.98809C11.5945 8.98809 11.8401 8.74253 11.8401 8.43963V7.3427C11.8401 7.0398 11.5945 6.79423 11.2916 6.79423ZM6.17265 6.79423C5.86975 6.79423 5.62418 7.0398 5.62418 7.3427V8.43963C5.62418 8.74253 5.86975 8.98809 6.17265 8.98809C6.47554 8.98809 6.72111 8.74253 6.72111 8.43963V7.3427C6.72111 7.0398 6.47554 6.79423 6.17265 6.79423Z" fill="white"/>
</svg>
