<svg width="50" height="62" viewBox="0 0 50 62" fill="none" xmlns="http://www.w3.org/2000/svg">
<path d="M34.1243 13.054L29.8157 16.1562L31.7115 18.9137L36.3648 17.1903L39.9841 18.052L41.5352 14.0881L44.8097 12.0199L43.7757 10.1241L33.7796 6.50488L34.1243 13.054Z" fill="#ABABAB"/>
<path d="M32.9179 12.3646L28.6093 15.4668L30.5051 18.2243L35.1584 16.5009L38.7776 17.3626L40.3287 13.3987L43.6033 11.3305L42.5692 9.43475L32.5732 5.8155L32.9179 12.3646Z" fill="#767674"/>
<path d="M46.8778 4.26439L46.1884 6.67722C46.131 6.84957 46.0506 7.22873 46.1884 7.3666C46.3263 7.50448 47.28 8.34322 47.7395 8.74536L49.6353 5.98784V3.40266L46.8778 4.26439Z" fill="#767674"/>
<path d="M9.99605 51.8316L6.3768 55.9679L7.92791 58.8978V62H10.6854L13.6153 56.485L16.5452 55.9679L19.9921 52.8657H24.9901L28.437 47.523L37.0542 45.7996L38.6053 42.1803L37.5713 41.3186C37.6287 40.2271 37.7091 37.6993 37.5713 36.3206C37.3989 34.5971 38.95 30.9779 39.6394 28.9097C40.1909 27.2552 38.1457 23.8543 37.0542 22.3606L32.9179 24.4288L34.1244 27.1863L32.9179 33.2184L31.0222 35.1142V37.1823L24.9901 42.1803L23.6113 44.0761L13.6153 45.1102L9.99605 50.4529V51.8316Z" fill="#ABABAB"/>
<path d="M8.61726 51.1423L4.99802 55.2785L6.54912 58.2084V61.3106H9.30664L12.2365 55.7956L15.1664 55.2785L18.6133 52.1763H23.6113L27.0582 46.8336L35.6754 45.1102L37.2266 41.4909L36.1925 40.6292C36.2499 39.5377 36.3304 37.01 36.1925 35.6312C36.0201 33.9077 37.5712 30.2885 38.2606 28.2204C38.8121 26.5658 36.767 23.1649 35.6754 21.6712L31.5392 23.7394L32.7456 26.4969L31.5392 32.529L29.6434 34.4248V36.4929L23.6113 41.4909L22.2325 43.3867L12.2365 44.4208L8.61726 49.7635V51.1423Z" fill="#767674"/>
<path d="M1.55111 46.1442L0 48.3847L1.20642 49.7635L2.06814 50.1082L2.75752 49.2465C2.98732 48.7869 3.48137 47.8332 3.61925 47.6953C3.75712 47.5575 3.5618 46.9485 3.4469 46.6613L2.41283 45.9719L1.55111 46.1442Z" fill="#767674"/>
<path d="M29.6433 56.6573L26.1964 58.5531V61.1383H28.6093C28.954 61.1383 30.6774 59.2425 30.6774 58.5531C30.6774 58.0016 29.988 57.0594 29.6433 56.6573Z" fill="#767674"/>
<path d="M7.73888 0C4.87591 0 2.54764 2.29501 2.54764 5.11709C2.54764 8.66408 6.20499 13.324 6.40399 13.521C6.48539 13.6008 6.5955 13.6456 6.71027 13.6456C6.82504 13.6456 7.8872 13.6456 8.04516 13.6456C8.24416 13.4485 12.9301 8.66408 12.9301 5.11709C12.9301 2.29501 10.6019 0 7.73888 0Z" fill="#E98122"/>
<path d="M6.5523 0C3.68933 0 1.36105 2.29501 1.36105 5.11709C1.36105 8.66408 6.04702 13.324 6.24601 13.521C6.32742 13.6008 6.43753 13.6456 6.5523 13.6456C6.66707 13.6456 6.77718 13.6008 6.85858 13.521C7.05758 13.324 11.7435 8.66408 11.7435 5.11709C11.7435 2.29501 9.41527 0 6.5523 0Z" fill="#FD902B"/>
<path d="M6.84895 7.7127C8.24151 7.7127 9.37041 6.5838 9.37041 5.19124C9.37041 3.79867 8.24151 2.66978 6.84895 2.66978C5.45638 2.66978 4.32748 3.79867 4.32748 5.19124C4.32748 6.5838 5.45638 7.7127 6.84895 7.7127Z" fill="#FAFAFA"/>
</svg>
