<svg width="33" height="33" viewBox="0 0 33 33" fill="none" xmlns="http://www.w3.org/2000/svg">
<path d="M32.7325 16.3974V16.3344C32.701 7.42084 25.5211 0.146423 16.7335 0.146423C7.94592 0.146423 0.734497 7.42084 0.734497 16.3974C0.734497 25.3751 7.91329 32.6349 16.7335 32.6349C20.7808 32.6377 24.6733 31.0799 27.6013 28.2856C27.8896 28.0221 28.0615 27.6549 28.0792 27.2647C28.0968 26.8745 27.9587 26.4932 27.6952 26.2048C27.4317 25.9165 27.0645 25.7446 26.6743 25.7269C26.2841 25.7093 25.9028 25.8474 25.6145 26.1109L25.583 26.1424C24.3196 27.3434 22.8267 28.2767 21.1936 28.8863C19.5606 29.4959 17.8213 29.7693 16.08 29.69C14.3387 29.6106 12.6314 29.1803 11.0606 28.4247C9.48983 27.6691 8.0879 26.6039 6.93902 25.293L13.7736 14.333V19.4046C13.7736 21.8279 14.7186 22.6166 15.5128 22.8371C16.3071 23.0576 17.4985 22.8978 18.7889 20.8514L22.5386 14.7628C22.6388 14.585 22.7546 14.4163 22.8829 14.2576V17.3458C22.8829 19.6128 23.7964 21.4398 25.3703 22.3207C26.0969 22.7163 26.917 22.9077 27.7436 22.8746C28.5702 22.8416 29.3724 22.5852 30.0651 22.1328C31.8831 20.9527 32.8596 18.886 32.7325 16.3974ZM28.5744 19.5869C28.3219 19.7608 28.0275 19.8641 27.7218 19.886C27.416 19.908 27.1098 19.8478 26.8351 19.7118C26.2051 19.3349 25.826 18.4855 25.826 17.32V13.7502C25.826 12.0515 25.1644 10.8218 24.0315 10.509C22.1089 9.92853 20.6621 12.3035 20.1255 13.1855L16.7335 18.6329V11.9255C16.702 10.383 16.1969 9.46952 15.2518 9.18489C14.6218 8.99701 13.6768 9.09263 12.7644 10.4787L5.17385 22.6346C4.16405 20.7104 3.63486 18.5705 3.63144 16.3974C3.63144 9.05888 9.51983 3.10637 16.7335 3.10637C23.9472 3.10637 29.8356 9.05888 29.8356 16.3974V16.4616C29.9109 17.8768 29.4564 19.0131 28.5755 19.5779L28.5744 19.5869Z" fill="white"/>
</svg>
