<svg width="35" height="14" viewBox="0 0 35 14" fill="none" xmlns="http://www.w3.org/2000/svg">
<path d="M7.78156 8.59972L10.9316 12.6137C10.9796 12.6857 11.0036 12.7697 11.0036 12.8657C11.0036 12.9737 10.9616 13.0697 10.8776 13.1537C10.7936 13.2377 10.6916 13.2797 10.5716 13.2797H7.81756C7.66156 13.2797 7.53556 13.2377 7.43956 13.1537C7.35556 13.0697 7.28956 12.9977 7.24156 12.9377L5.74756 11.0477L4.27156 12.9377C4.22356 12.9977 4.15156 13.0697 4.05556 13.1537C3.97156 13.2377 3.85156 13.2797 3.69556 13.2797H0.941558C0.821558 13.2797 0.719558 13.2377 0.635558 13.1537C0.551558 13.0697 0.509558 12.9737 0.509558 12.8657C0.509558 12.7697 0.533558 12.6857 0.581558 12.6137L3.76756 8.52772L0.671558 4.58572C0.623558 4.51372 0.599558 4.42972 0.599558 4.33372C0.599558 4.22572 0.641558 4.12972 0.725558 4.04572C0.809558 3.96172 0.911558 3.91972 1.03156 3.91972H3.82156C3.97756 3.91972 4.09756 3.96172 4.18156 4.04572C4.27756 4.12972 4.34956 4.20172 4.39756 4.26172L5.78356 6.04372L7.16956 4.26172C7.21756 4.20172 7.28356 4.12972 7.36756 4.04572C7.46356 3.96172 7.58956 3.91972 7.74556 3.91972H10.5356C10.6556 3.91972 10.7576 3.96172 10.8416 4.04572C10.9256 4.12972 10.9676 4.22572 10.9676 4.33372C10.9676 4.42972 10.9436 4.51372 10.8956 4.58572L7.78156 8.59972ZM21.8614 4.72972C21.8614 5.07772 21.8254 5.41372 21.7534 5.73772C21.6814 6.06172 21.5554 6.37972 21.3754 6.69172C21.2074 6.99172 20.9794 7.29172 20.6914 7.59172C20.4154 7.89172 20.0734 8.19172 19.6654 8.49172L17.1454 10.3997H21.6634C21.7954 10.3997 21.9094 10.4477 22.0054 10.5437C22.1014 10.6397 22.1494 10.7537 22.1494 10.8857V12.7937C22.1494 12.9257 22.1014 13.0397 22.0054 13.1357C21.9094 13.2317 21.7954 13.2797 21.6634 13.2797H12.1594C12.0274 13.2797 11.9134 13.2317 11.8174 13.1357C11.7214 13.0397 11.6734 12.9257 11.6734 12.7937V11.2457C11.6734 11.0537 11.7094 10.8617 11.7814 10.6697C11.8654 10.4777 12.0034 10.3157 12.1954 10.1837L17.5774 6.33172C17.9974 6.01972 18.2614 5.73772 18.3694 5.48572C18.4774 5.22172 18.5314 4.96972 18.5314 4.72972C18.5314 4.64572 18.5134 4.53172 18.4774 4.38772C18.4534 4.23172 18.3874 4.08172 18.2794 3.93772C18.1714 3.78172 18.0154 3.64972 17.8114 3.54172C17.6194 3.43372 17.3554 3.37972 17.0194 3.37972C16.6834 3.37972 16.4074 3.43972 16.1914 3.55972C15.9874 3.66772 15.8254 3.79372 15.7054 3.93772C15.5974 4.08172 15.5134 4.23172 15.4534 4.38772C15.4054 4.53172 15.3694 4.63972 15.3454 4.71172C15.2854 4.87972 15.1894 4.99372 15.0574 5.05372C14.9374 5.10172 14.7934 5.12572 14.6254 5.12572H12.4114C12.3034 5.12572 12.2074 5.08972 12.1234 5.01772C12.0514 4.93372 12.0154 4.83772 12.0154 4.72972C12.0274 4.22572 12.1354 3.72772 12.3394 3.23572C12.5434 2.73172 12.8494 2.27572 13.2574 1.86772C13.6774 1.45972 14.1934 1.12972 14.8054 0.877724C15.4294 0.625724 16.1614 0.499723 17.0014 0.499723C17.7934 0.499723 18.4894 0.619723 19.0894 0.859723C19.7014 1.08772 20.2114 1.39972 20.6194 1.79572C21.0274 2.17972 21.3334 2.62972 21.5374 3.14572C21.7534 3.64972 21.8614 4.17772 21.8614 4.72972ZM28.7736 0.499723C29.6736 0.499723 30.4476 0.631724 31.0956 0.895724C31.7436 1.15972 32.2776 1.51372 32.6976 1.95772C33.1296 2.40172 33.4476 2.92372 33.6516 3.52372C33.8676 4.11172 33.9936 4.72972 34.0296 5.37772C34.0536 5.89372 34.0656 6.43372 34.0656 6.99772C34.0656 7.56172 34.0536 8.08972 34.0296 8.58172C33.9936 9.22972 33.8676 9.85372 33.6516 10.4537C33.4476 11.0417 33.1296 11.5577 32.6976 12.0017C32.2776 12.4457 31.7436 12.7997 31.0956 13.0637C30.4476 13.3277 29.6736 13.4597 28.7736 13.4597C27.8736 13.4597 27.0996 13.3277 26.4516 13.0637C25.8036 12.7997 25.2636 12.4457 24.8316 12.0017C24.4116 11.5577 24.0936 11.0417 23.8776 10.4537C23.6736 9.85372 23.5536 9.22972 23.5176 8.58172C23.4936 8.08972 23.4816 7.56172 23.4816 6.99772C23.4816 6.43372 23.4936 5.89372 23.5176 5.37772C23.5536 4.72972 23.6736 4.11172 23.8776 3.52372C24.0936 2.92372 24.4116 2.40172 24.8316 1.95772C25.2636 1.51372 25.8036 1.15972 26.4516 0.895724C27.0996 0.631724 27.8736 0.499723 28.7736 0.499723ZM30.6996 8.49172C30.7476 7.47172 30.7476 6.46372 30.6996 5.46772C30.6756 5.16772 30.6276 4.89172 30.5556 4.63972C30.4956 4.38772 30.3936 4.17172 30.2496 3.99172C30.1056 3.79972 29.9136 3.64972 29.6736 3.54172C29.4336 3.43372 29.1336 3.37972 28.7736 3.37972C28.4136 3.37972 28.1136 3.43372 27.8736 3.54172C27.6336 3.64972 27.4416 3.79972 27.2976 3.99172C27.1536 4.17172 27.0456 4.38772 26.9736 4.63972C26.9016 4.89172 26.8596 5.16772 26.8476 5.46772C26.7876 6.46372 26.7876 7.47172 26.8476 8.49172C26.8596 8.79172 26.8956 9.06772 26.9556 9.31972C27.0276 9.57172 27.1356 9.79372 27.2796 9.98572C27.4356 10.1657 27.6336 10.3097 27.8736 10.4177C28.1136 10.5257 28.4136 10.5797 28.7736 10.5797C29.1336 10.5797 29.4336 10.5257 29.6736 10.4177C29.9136 10.3097 30.1056 10.1657 30.2496 9.98572C30.4056 9.79372 30.5136 9.57172 30.5736 9.31972C30.6456 9.06772 30.6876 8.79172 30.6996 8.49172Z" fill="#FE881C"/>
</svg>
