<svg width="35" height="14" viewBox="0 0 35 14" fill="none" xmlns="http://www.w3.org/2000/svg">
<path d="M7.88715 8.47955L11.0371 12.4935C11.0851 12.5655 11.1091 12.6495 11.1091 12.7455C11.1091 12.8535 11.0671 12.9495 10.9831 13.0335C10.8991 13.1175 10.7971 13.1595 10.6771 13.1595H7.92315C7.76715 13.1595 7.64115 13.1175 7.54515 13.0335C7.46115 12.9495 7.39515 12.8775 7.34715 12.8175L5.85315 10.9275L4.37715 12.8175C4.32915 12.8775 4.25715 12.9495 4.16115 13.0335C4.07715 13.1175 3.95715 13.1595 3.80115 13.1595H1.04715C0.927148 13.1595 0.825148 13.1175 0.741148 13.0335C0.657148 12.9495 0.615148 12.8535 0.615148 12.7455C0.615148 12.6495 0.639148 12.5655 0.687148 12.4935L3.87315 8.40755L0.777148 4.46555C0.729148 4.39355 0.705148 4.30955 0.705148 4.21355C0.705148 4.10555 0.747148 4.00955 0.831148 3.92555C0.915148 3.84155 1.01715 3.79955 1.13715 3.79955H3.92715C4.08315 3.79955 4.20315 3.84155 4.28715 3.92555C4.38315 4.00955 4.45515 4.08155 4.50315 4.14155L5.88915 5.92355L7.27515 4.14155C7.32315 4.08155 7.38915 4.00955 7.47315 3.92555C7.56915 3.84155 7.69515 3.79955 7.85115 3.79955H10.6411C10.7611 3.79955 10.8631 3.84155 10.9471 3.92555C11.0311 4.00955 11.0731 4.10555 11.0731 4.21355C11.0731 4.30955 11.0491 4.39355 11.0011 4.46555L7.88715 8.47955ZM21.3189 0.559545C21.4509 0.559545 21.5649 0.607545 21.6609 0.703545C21.7569 0.799546 21.8049 0.913545 21.8049 1.04555V2.95355C21.8049 3.08555 21.7629 3.20554 21.6789 3.31354C21.5949 3.42155 21.5169 3.51155 21.4449 3.58355L19.2669 5.77955C20.2029 6.01955 20.9649 6.42755 21.5529 7.00355C22.1409 7.56755 22.4349 8.31755 22.4349 9.25355C22.4349 10.6095 21.9669 11.6295 21.0309 12.3135C20.0949 12.9975 18.7869 13.3395 17.1069 13.3395C16.2429 13.3395 15.4749 13.2375 14.8029 13.0335C14.1429 12.8295 13.5849 12.5595 13.1289 12.2235C12.6729 11.8875 12.3189 11.5095 12.0669 11.0895C11.8269 10.6575 11.7009 10.2195 11.6889 9.77555C11.6889 9.66755 11.7249 9.57755 11.7969 9.50555C11.8809 9.42155 11.9769 9.37955 12.0849 9.37955H14.3529C14.6049 9.37955 14.7969 9.43955 14.9289 9.55955C15.0609 9.66755 15.2049 9.78755 15.3609 9.91955C15.5289 10.0515 15.7389 10.1775 15.9909 10.2975C16.2549 10.4055 16.6269 10.4595 17.1069 10.4595C17.6829 10.4595 18.1569 10.3635 18.5289 10.1715C18.9129 9.97955 19.1049 9.67355 19.1049 9.25355C19.1049 8.83355 18.9129 8.52755 18.5289 8.33555C18.1569 8.14355 17.6829 8.04755 17.1069 8.04755H15.6129C15.4809 8.04755 15.3669 7.99955 15.2709 7.90355C15.1749 7.80755 15.1269 7.69355 15.1269 7.56155V6.01355C15.1269 5.88155 15.1689 5.76155 15.2529 5.65355C15.3369 5.54555 15.4209 5.44955 15.5049 5.36555L17.4129 3.43955H12.7149C12.5829 3.43955 12.4689 3.39155 12.3729 3.29555C12.2769 3.19955 12.2289 3.08555 12.2289 2.95355V1.04555C12.2289 0.913545 12.2769 0.799546 12.3729 0.703545C12.4689 0.607545 12.5829 0.559545 12.7149 0.559545H21.3189ZM29.055 0.379545C29.955 0.379545 30.729 0.511545 31.377 0.775545C32.025 1.03955 32.559 1.39355 32.979 1.83755C33.411 2.28155 33.729 2.80355 33.933 3.40354C34.149 3.99155 34.275 4.60955 34.311 5.25755C34.335 5.77355 34.347 6.31355 34.347 6.87755C34.347 7.44155 34.335 7.96955 34.311 8.46155C34.275 9.10955 34.149 9.73355 33.933 10.3335C33.729 10.9215 33.411 11.4375 32.979 11.8815C32.559 12.3255 32.025 12.6795 31.377 12.9435C30.729 13.2075 29.955 13.3395 29.055 13.3395C28.155 13.3395 27.381 13.2075 26.733 12.9435C26.085 12.6795 25.545 12.3255 25.113 11.8815C24.693 11.4375 24.375 10.9215 24.159 10.3335C23.955 9.73355 23.835 9.10955 23.799 8.46155C23.775 7.96955 23.763 7.44155 23.763 6.87755C23.763 6.31355 23.775 5.77355 23.799 5.25755C23.835 4.60955 23.955 3.99155 24.159 3.40354C24.375 2.80355 24.693 2.28155 25.113 1.83755C25.545 1.39355 26.085 1.03955 26.733 0.775545C27.381 0.511545 28.155 0.379545 29.055 0.379545ZM30.981 8.37155C31.029 7.35155 31.029 6.34355 30.981 5.34755C30.957 5.04755 30.909 4.77155 30.837 4.51955C30.777 4.26755 30.675 4.05155 30.531 3.87155C30.387 3.67955 30.195 3.52955 29.955 3.42155C29.715 3.31355 29.415 3.25955 29.055 3.25955C28.695 3.25955 28.395 3.31355 28.155 3.42155C27.915 3.52955 27.723 3.67955 27.579 3.87155C27.435 4.05155 27.327 4.26755 27.255 4.51955C27.183 4.77155 27.141 5.04755 27.129 5.34755C27.069 6.34355 27.069 7.35155 27.129 8.37155C27.141 8.67155 27.177 8.94755 27.237 9.19955C27.309 9.45155 27.417 9.67355 27.561 9.86555C27.717 10.0455 27.915 10.1895 28.155 10.2975C28.395 10.4055 28.695 10.4595 29.055 10.4595C29.415 10.4595 29.715 10.4055 29.955 10.2975C30.195 10.1895 30.387 10.0455 30.531 9.86555C30.687 9.67355 30.795 9.45155 30.855 9.19955C30.927 8.94755 30.969 8.67155 30.981 8.37155Z" fill="#FE881C"/>
</svg>
