<svg width="34" height="14" viewBox="0 0 34 14" fill="none" xmlns="http://www.w3.org/2000/svg">
<path d="M0.905558 13.1595C0.797558 13.1595 0.701558 13.1235 0.617558 13.0515C0.545558 12.9675 0.509558 12.8715 0.509558 12.7635C0.509558 12.7275 0.515558 12.6855 0.527558 12.6375C0.539558 12.5775 0.563558 12.5235 0.599558 12.4755L3.60556 8.35355L0.869558 4.48355C0.833558 4.43555 0.803558 4.38755 0.779558 4.33955C0.767558 4.29155 0.761558 4.24355 0.761558 4.19555C0.761558 4.08755 0.803558 3.99755 0.887558 3.92555C0.971558 3.84155 1.06756 3.79955 1.17556 3.79955H3.37156C3.52756 3.79955 3.64156 3.83555 3.71356 3.90755C3.79756 3.97955 3.85756 4.04555 3.89356 4.10555L5.56756 6.42755L7.22356 4.12355C7.27156 4.06355 7.33156 3.99755 7.40356 3.92555C7.48756 3.84155 7.60756 3.79955 7.76356 3.79955H9.86956C9.97756 3.79955 10.0676 3.84155 10.1396 3.92555C10.2236 3.99755 10.2656 4.08755 10.2656 4.19555C10.2656 4.24355 10.2596 4.29155 10.2476 4.33955C10.2356 4.38755 10.2116 4.43555 10.1756 4.48355L7.36756 8.35355L10.4096 12.4755C10.4576 12.5235 10.4876 12.5715 10.4996 12.6195C10.5116 12.6675 10.5176 12.7155 10.5176 12.7635C10.5176 12.8715 10.4756 12.9675 10.3916 13.0515C10.3196 13.1235 10.2236 13.1595 10.1036 13.1595H7.81756C7.67356 13.1595 7.56556 13.1295 7.49356 13.0695C7.42156 12.9975 7.36156 12.9315 7.31356 12.8715L5.49556 10.4055L3.65956 12.8715C3.61156 12.9195 3.55156 12.9795 3.47956 13.0515C3.40756 13.1235 3.29356 13.1595 3.13756 13.1595H0.905558ZM16.2036 13.3575C15.0756 13.3575 14.1336 13.1835 13.3776 12.8355C12.6216 12.4755 12.0456 12.0135 11.6496 11.4495C11.2656 10.8735 11.0616 10.2555 11.0376 9.59555C11.0376 9.48755 11.0736 9.39755 11.1456 9.32555C11.2176 9.25355 11.3076 9.21755 11.4156 9.21755H13.8276C13.9836 9.21755 14.1036 9.25355 14.1876 9.32555C14.2836 9.38555 14.3556 9.46355 14.4036 9.55955C14.5116 9.83555 14.6496 10.0635 14.8176 10.2435C14.9976 10.4235 15.2016 10.5555 15.4296 10.6395C15.6696 10.7235 15.9336 10.7655 16.2216 10.7655C16.5576 10.7655 16.8696 10.6935 17.1576 10.5495C17.4456 10.4055 17.6736 10.1955 17.8416 9.91955C18.0216 9.63155 18.1116 9.28955 18.1116 8.89355C18.1116 8.53355 18.0276 8.22155 17.8596 7.95755C17.7036 7.69355 17.4816 7.48355 17.1936 7.32755C16.9056 7.17155 16.5816 7.09355 16.2216 7.09355C15.9336 7.09355 15.6996 7.12955 15.5196 7.20155C15.3396 7.26155 15.1896 7.33955 15.0696 7.43555C14.9496 7.53155 14.8416 7.61555 14.7456 7.68755C14.6496 7.74755 14.5416 7.77755 14.4216 7.77755H12.0636C11.9556 7.77755 11.8596 7.74155 11.7756 7.66955C11.7036 7.58555 11.6676 7.48955 11.6676 7.38155L12.3156 1.09955C12.3396 0.919545 12.4056 0.787545 12.5136 0.703545C12.6216 0.607545 12.7536 0.559545 12.9096 0.559545H20.1276C20.2596 0.559545 20.3676 0.601545 20.4516 0.685546C20.5356 0.769545 20.5776 0.877545 20.5776 1.00955V2.70155C20.5776 2.83355 20.5356 2.94155 20.4516 3.02555C20.3676 3.10955 20.2596 3.15154 20.1276 3.15154H14.9076L14.6736 5.49155C14.9376 5.31155 15.2436 5.16755 15.5916 5.05955C15.9516 4.93955 16.4376 4.87955 17.0496 4.87955C17.6256 4.87955 18.1716 4.97555 18.6876 5.16755C19.2156 5.35955 19.6836 5.63555 20.0916 5.99555C20.5116 6.35555 20.8356 6.78755 21.0636 7.29155C21.3036 7.78355 21.4236 8.34155 21.4236 8.96555C21.4236 9.81755 21.2136 10.5735 20.7936 11.2335C20.3856 11.8935 19.7916 12.4155 19.0116 12.7995C18.2316 13.1715 17.2956 13.3575 16.2036 13.3575ZM27.8223 13.3395C26.9583 13.3395 26.2083 13.2195 25.5723 12.9795C24.9363 12.7275 24.4083 12.3855 23.9883 11.9535C23.5803 11.5215 23.2683 11.0175 23.0523 10.4415C22.8363 9.86555 22.7103 9.24755 22.6743 8.58755C22.6623 8.26355 22.6503 7.89755 22.6383 7.48955C22.6383 7.06955 22.6383 6.64955 22.6383 6.22955C22.6503 5.79755 22.6623 5.41355 22.6743 5.07755C22.7103 4.41755 22.8363 3.80555 23.0523 3.24155C23.2803 2.66555 23.6043 2.16755 24.0243 1.74755C24.4563 1.31555 24.9843 0.979545 25.6083 0.739545C26.2443 0.499545 26.9823 0.379545 27.8223 0.379545C28.6743 0.379545 29.4123 0.499545 30.0363 0.739545C30.6603 0.979545 31.1823 1.31555 31.6023 1.74755C32.0343 2.16755 32.3643 2.66555 32.5923 3.24155C32.8203 3.80555 32.9463 4.41755 32.9703 5.07755C32.9943 5.41355 33.0063 5.79755 33.0063 6.22955C33.0183 6.64955 33.0183 7.06955 33.0063 7.48955C33.0063 7.89755 32.9943 8.26355 32.9703 8.58755C32.9463 9.24755 32.8203 9.86555 32.5923 10.4415C32.3763 11.0175 32.0583 11.5215 31.6383 11.9535C31.2303 12.3855 30.7083 12.7275 30.0723 12.9795C29.4483 13.2195 28.6983 13.3395 27.8223 13.3395ZM27.8223 10.7295C28.4463 10.7295 28.8963 10.5315 29.1723 10.1355C29.4603 9.72755 29.6103 9.18155 29.6223 8.49755C29.6463 8.14955 29.6583 7.78355 29.6583 7.39955C29.6703 7.01555 29.6703 6.63155 29.6583 6.24755C29.6583 5.86355 29.6463 5.50955 29.6223 5.18555C29.6103 4.52555 29.4603 3.99155 29.1723 3.58355C28.8963 3.17555 28.4463 2.96555 27.8223 2.95355C27.1983 2.96555 26.7483 3.17555 26.4723 3.58355C26.1963 3.99155 26.0463 4.52555 26.0223 5.18555C26.0103 5.50955 25.9983 5.86355 25.9863 6.24755C25.9863 6.63155 25.9863 7.01555 25.9863 7.39955C25.9983 7.78355 26.0103 8.14955 26.0223 8.49755C26.0463 9.18155 26.2023 9.72755 26.4903 10.1355C26.7783 10.5315 27.2223 10.7295 27.8223 10.7295Z" fill="#FE881C"/>
</svg>
